<svg xmlns="http://www.w3.org/2000/svg" preserveAspectRatio="xMidYMid" width="42" height="34" viewBox="0 0 42 34"><defs><style>.cls-2{fill:#fff}</style></defs><path d="M41.982 4.032a17.285 17.285 0 0 1-4.949 1.353A8.62 8.62 0 0 0 40.821.639a17.388 17.388 0 0 1-5.469 2.082 8.617 8.617 0 0 0-6.288-2.71c-4.758 0-8.615 3.84-8.615 8.579 0 .668.076 1.327.223 1.955A24.514 24.514 0 0 1 2.915 1.583a8.563 8.563 0 0 0 2.667 11.45 8.596 8.596 0 0 1-3.902-1.075l-.001.11c0 4.157 2.97 7.622 6.91 8.41a8.61 8.61 0 0 1-2.269.299 8.575 8.575 0 0 1-1.621-.152 8.612 8.612 0 0 0 8.047 5.955 17.324 17.324 0 0 1-10.698 3.674c-.696 0-1.382-.04-2.055-.122a24.456 24.456 0 0 0 13.205 3.855c15.846 0 24.509-13.07 24.509-24.404 0-.37-.007-.743-.023-1.111a17.461 17.461 0 0 0 4.298-4.44z" id="path-1" class="cls-2" fill-rule="evenodd"/></svg>