<svg xmlns="http://www.w3.org/2000/svg" xmlns:xlink="http://www.w3.org/1999/xlink" preserveAspectRatio="xMidYMid" width="20" height="42" viewBox="0 0 20 42">
  <defs>
    <style>

      .cls-2 {
        fill: #ffffff;
      }
    </style>
  </defs>
  <path d="M19.026,0.003 C19.026,0.003 13.818,0.003 13.818,0.003 C13.818,0.003 5.009,-0.656 5.009,8.630 C5.009,10.616 5.009,15.012 5.009,15.012 C5.009,15.012 0.013,15.012 0.013,15.012 C0.013,15.012 0.029,20.014 0.029,20.014 C0.029,20.014 5.006,20.014 5.006,20.014 C5.006,20.014 5.011,41.986 5.011,41.986 C5.011,41.986 11.990,41.986 11.990,41.986 C11.990,41.986 11.990,20.014 11.990,20.014 C11.990,20.014 18.591,20.014 18.591,20.014 C18.591,20.014 20.000,15.012 20.000,15.012 C20.000,15.012 12.023,15.012 12.023,15.012 C12.023,15.012 12.023,8.441 12.023,8.441 C12.023,8.441 11.958,6.005 14.813,6.005 C14.813,6.005 19.000,6.005 19.000,6.005 C19.000,6.005 19.026,0.003 19.026,0.003 Z" id="path-1" class="cls-2" fill-rule="evenodd"/>
</svg>
