<svg xmlns="http://www.w3.org/2000/svg" xmlns:xlink="http://www.w3.org/1999/xlink" preserveAspectRatio="xMidYMid" width="42" height="34" viewBox="0 0 42 34">
  <defs>
    <style>

      .cls-2 {
        fill: #ffffff;
      }
    </style>
  </defs>
  <path d="M41.982,4.032 C40.437,4.717 38.776,5.175 37.033,5.385 C38.812,4.323 40.178,2.639 40.821,0.639 C39.158,1.621 37.313,2.333 35.352,2.721 C33.780,1.052 31.541,0.011 29.064,0.011 C24.306,0.011 20.449,3.851 20.449,8.590 C20.449,9.258 20.525,9.917 20.672,10.545 C13.513,10.184 7.165,6.771 2.915,1.583 C2.175,2.849 1.749,4.321 1.749,5.893 C1.749,8.871 3.270,11.494 5.582,13.033 C4.170,12.989 2.841,12.601 1.680,11.958 C1.679,11.994 1.679,12.030 1.679,12.068 C1.679,16.225 4.649,19.690 8.589,20.478 C7.867,20.675 7.106,20.777 6.320,20.777 C5.765,20.777 5.225,20.726 4.699,20.625 C5.795,24.033 8.977,26.514 12.746,26.580 C9.798,28.882 6.083,30.254 2.048,30.254 C1.352,30.254 0.666,30.214 -0.007,30.132 C3.805,32.566 8.333,33.987 13.198,33.987 C29.044,33.987 37.707,20.917 37.707,9.583 C37.707,9.213 37.700,8.840 37.684,8.472 C39.368,7.263 40.826,5.752 41.982,4.032 Z" id="path-1" class="cls-2" fill-rule="evenodd"/>
</svg>
